GIL03_free4_ik
nRows=3
nColumns=375

# SIMM Motion File Header:
name GIL03_free4_ik
datacolumns 375
datarows 3
otherdata 1
range 0.80833000 0.82500000
endheader
time	pelvis_tx	pelvis_ty	pelvis_tz	pelvis_tilt	pelvis_list	pelvis_rotation	hip_flexion_r	hip_adduction_r	hip_rotation_r	knee_angle_r	ankle_angle_r	hip_flexion_l	hip_adduction_l	hip_rotation_l	knee_angle_l	ankle_angle_l	lumbar_extension	lumbar_bending	lumbar_rotation	subtalar_angle_r	mtp_angle_r	subtalar_angle_l	mtp_angle_l	asis_r_px	asis_r_py	asis_r_pz	asis_l_px	asis_l_py	asis_l_pz	midasis_px	midasis_py	midasis_pz	psis_r_px	psis_r_py	psis_r_pz	psis_l_px	psis_l_py	psis_l_pz	hip_r_px	hip_r_py	hip_r_pz	hip_l_px	hip_l_py	hip_l_pz	midhip_px	midhip_py	midhip_pz	epicondLat_r_px	epicondLat_r_py	epicondLat_r_pz	epicondMed_r_px	epicondMed_r_py	epicondMed_r_pz	thighwand_r_px	thighwand_r_py	thighwand_r_pz	upperleg1_r_px	upperleg1_r_py	upperleg1_r_pz	upperleg2_r_px	upperleg2_r_py	upperleg2_r_pz	malleolusLat_r_px	malleolusLat_r_py	malleolusLat_r_pz	malleolusMedv_r_px	malleolusMedv_r_py	malleolusMedv_r_pz	shankwand_r_px	shankwand_r_py	shankwand_r_pz	lowerleg1_r_px	lowerleg1_r_py	lowerleg1_r_pz	knee_r_px	knee_r_py	knee_r_pz	ankle_r_px	ankle_r_py	ankle_r_pz	toe_r_px	toe_r_py	toe_r_pz	epicondLat_l_px	epicondLat_l_py	epicondLat_l_pz	epicondMed_l_px	epicondMed_l_py	epicondMed_l_pz	thighwand_l_px	thighwand_l_py	thighwand_l_pz	upperleg1_l_px	upperleg1_l_py	upperleg1_l_pz	upperleg2_l_px	upperleg2_l_py	upperleg2_l_pz	malleolusLat_l_px	malleolusLat_l_py	malleolusLat_l_pz	malleolusMedv_l_px	malleolusMedv_l_py	malleolusMedv_l_pz	shankwand_l_px	shankwand_l_py	shankwand_l_pz	lowerleg1_l_px	lowerleg1_l_py	lowerleg1_l_pz	knee_l_px	knee_l_py	knee_l_pz	ankle_l_px	ankle_l_py	ankle_l_pz	toe_l_px	toe_l_py	toe_l_pz	subclavicle_r_px	subclavicle_r_py	subclavicle_r_pz	subclavicle_l_px	subclavicle_l_py	subclavicle_l_pz	neck_px	neck_py	neck_pz	sternalnotch_px	sternalnotch_py	sternalnotch_pz	xyphoidprocess_px	xyphoidprocess_py	xyphoidprocess_pz	midhip_tx	midhip_ty	midhip_tz	hip_r_tx	hip_r_ty	hip_r_tz	hip_l_tx	hip_l_ty	hip_l_tz	knee_r_tx	knee_r_ty	knee_r_tz	knee_l_tx	knee_l_ty	knee_l_tz	ankle_r_tx	ankle_r_ty	ankle_r_tz	ankle_l_tx	ankle_l_ty	ankle_l_tz	midasis_tx	midasis_ty	midasis_tz	asis_r_tx	asis_r_ty	asis_r_tz	asis_l_tx	asis_l_ty	asis_l_tz	psis_r_tx	psis_r_ty	psis_r_tz	psis_l_tx	psis_l_ty	psis_l_tz	epicondLat_r_tx	epicondLat_r_ty	epicondLat_r_tz	epicondLat_l_tx	epicondLat_l_ty	epicondLat_l_tz	epicondMed_r_tx	epicondMed_r_ty	epicondMed_r_tz	epicondMed_l_tx	epicondMed_l_ty	epicondMed_l_tz	malleolusLat_r_tx	malleolusLat_r_ty	malleolusLat_r_tz	malleolusLat_l_tx	malleolusLat_l_ty	malleolusLat_l_tz	malleolusMedv_r_tx	malleolusMedv_r_ty	malleolusMedv_r_tz	malleolusMedv_l_tx	malleolusMedv_l_ty	malleolusMedv_l_tz	neck_tx	neck_ty	neck_tz	subclavicle_r_tx	subclavicle_r_ty	subclavicle_r_tz	subclavicle_l_tx	subclavicle_l_ty	subclavicle_l_tz	sternalnotch_tx	sternalnotch_ty	sternalnotch_tz	xyphoidprocess_tx	xyphoidprocess_ty	xyphoidprocess_tz	thighwand_r_tx	thighwand_r_ty	thighwand_r_tz	thighwand_l_tx	thighwand_l_ty	thighwand_l_tz	upperleg1_r_tx	upperleg1_r_ty	upperleg1_r_tz	upperleg1_l_tx	upperleg1_l_ty	upperleg1_l_tz	upperleg2_r_tx	upperleg2_r_ty	upperleg2_r_tz	upperleg2_l_tx	upperleg2_l_ty	upperleg2_l_tz	shankwand_r_tx	shankwand_r_ty	shankwand_r_tz	shankwand_l_tx	shankwand_l_ty	shankwand_l_tz	lowerleg1_r_tx	lowerleg1_r_ty	lowerleg1_r_tz	lowerleg1_l_tx	lowerleg1_l_ty	lowerleg1_l_tz	toe_r_tx	toe_r_ty	toe_r_tz	toe_l_tx	toe_l_ty	toe_l_tz	ground_force_vx	ground_force_vy	ground_force_vz	ground_force_px	ground_force_py	ground_force_pz	ground_force_vx	ground_force_vy	ground_force_vz	ground_force_px	ground_force_py	ground_force_pz	ground_torque_x	ground_torque_y	ground_torque_z	ground_torque_x	ground_torque_y	ground_torque_z	ground_marker_px	ground_marker_py	ground_marker_pz	ground_marker_px	ground_marker_py	ground_marker_pz	ground_marker_px	ground_marker_py	ground_marker_pz	ground_marker_px	ground_marker_py	ground_marker_pz	ground_marker_px	ground_marker_py	ground_marker_pz	ground_marker_px	ground_marker_py	ground_marker_pz	ground_marker_px	ground_marker_py	ground_marker_pz	ground_marker_px	ground_marker_py	ground_marker_pz	ground_marker_px	ground_marker_py	ground_marker_pz	ground_marker_px	ground_marker_py	ground_marker_pz	ground_marker_px	ground_marker_py	ground_marker_pz	ground_marker_px	ground_marker_py	ground_marker_pz	ground_marker_px	ground_marker_py	ground_marker_pz	ground_marker_px	ground_marker_py	ground_marker_pz	ground_marker_px	ground_marker_py	ground_marker_pz	ground_marker_px	ground_marker_py	ground_marker_pz	ground_marker_px	ground_marker_py	ground_marker_pz	ground_marker_px	ground_marker_py	ground_marker_pz	ground_marker_px	ground_marker_py	ground_marker_pz	ground_marker_px	ground_marker_py	ground_marker_pz	ground_marker_px	ground_marker_py	ground_marker_pz	ground_marker_px	ground_marker_py	ground_marker_pz	ground_marker_px	ground_marker_py	ground_marker_pz	ground_marker_px	ground_marker_py	ground_marker_pz	ground_marker_px	ground_marker_py	ground_marker_pz	ground_marker_px	ground_marker_py	ground_marker_pz	ground_marker_px	ground_marker_py	ground_marker_pz	ground_marker_px	ground_marker_py	ground_marker_pz	ground_marker_px	ground_marker_py	ground_marker_pz	ground_marker_px	ground_marker_py	ground_marker_pz	ground_marker_px	ground_marker_py	ground_marker_pz	ground_marker_px	ground_marker_py	ground_marker_pz	ground_marker_px	ground_marker_py	ground_marker_pz	ground_marker_px	ground_marker_py	ground_marker_pz	ground_marker_px	ground_marker_py	ground_marker_pz	ground_marker_px	ground_marker_py	ground_marker_pz	ground_marker_px	ground_marker_py	ground_marker_pz
      0.80833000	      0.86607349	      0.89406558	     -0.24438682	      3.31923246	     -0.63300964	     -5.00643748	     18.22203770	      0.17052673	      8.70992308	    -44.50519731	      7.34913589	      1.58698991	      1.70787005	      2.92106234	    -17.70966608	     12.63123352	    -14.91890328	      2.52864695	     10.48612374	      0.00000000	      0.00000000	      0.00000000	      0.00000000	      0.90640831	      0.90087512	     -0.14771301	      0.90658062	      0.89256267	     -0.34925023	      0.87704607	      0.89471260	     -0.24342399	      0.75293365	      0.94106917	     -0.22590140	      0.75264426	      0.93950756	     -0.28078480	      0.80790279	      0.83918424	     -0.18312032	      0.81945327	      0.83840316	     -0.31422681	      0.81367803	      0.83879370	     -0.24867357	      0.98027691	      0.48940344	     -0.10941300	      0.95160595	      0.46742811	     -0.21282208	      1.04114850	      0.68528294	     -0.19624375	      0.95993966	      0.71374177	     -0.14298382	      0.97952477	      0.63027514	     -0.13572358	      0.77791115	      0.11319584	     -0.09948052	      0.81109971	      0.10950424	     -0.16493408	      0.82780047	      0.22940318	     -0.03516431	      0.83338510	      0.23139082	     -0.07709163	      0.94924618	      0.48716369	     -0.17008842	      0.79361617	      0.12091520	     -0.13994054	      0.89163428	      0.05823499	     -0.08761560	      0.87646055	      0.45358281	     -0.35540085	      0.84728590	      0.44309428	     -0.25057878	      0.97956724	      0.62718643	     -0.27601811	      0.91450620	      0.66365695	     -0.34430569	      0.91876468	      0.57616157	     -0.33500555	      0.75660910	      0.06032800	     -0.34117768	      0.77780157	      0.06757168	     -0.27702035	      0.74499089	      0.18229737	     -0.40370942	      0.75985878	      0.18512312	     -0.36317622	      0.84913660	      0.46455035	     -0.29822527	      0.76083001	      0.07535964	     -0.29851969	      0.88178962	      0.03119228	     -0.33687789	      0.88594246	      1.27498677	     -0.18041627	      0.87935449	      1.27993942	     -0.28932027	      0.78115374	      1.33079174	     -0.22193920	      0.86704514	      1.28667123	     -0.23873754	      0.94449714	      1.12995373	     -0.24930022	      0.81789000	      0.84200000	     -0.25278000	      0.81745800	      0.82688900	     -0.19214300	      0.81786800	      0.82312600	     -0.30955400	      0.95430900	      0.47203300	     -0.17360500	      0.84747200	      0.46340800	     -0.29261000	      0.79888500	      0.11672000	     -0.14285900	      0.75687700	      0.06768400	     -0.28771500	      0.87525000	      0.90662600	     -0.24730200	      0.86649400	      0.90847500	     -0.14768000	      0.88400500	      0.90477800	     -0.34692400	      0.71652900	      0.93052100	     -0.22972100	      0.72023900	      0.93141700	     -0.28474500	      0.96275500	      0.47811100	     -0.11959900	      0.86409700	      0.46233200	     -0.34450200	      0.95602200	      0.46593800	     -0.23178600	      0.84392400	      0.44405700	     -0.25491700	      0.79189400	      0.12300900	     -0.10552500	      0.76561200	      0.06522100	     -0.32513000	      0.82056300	      0.11963900	     -0.17293600	      0.77680800	      0.07557300	     -0.25996700	      0.78820600	      1.34740400	     -0.22119600	      0.88543600	      1.26440900	     -0.18159900	      0.87663600	      1.26918900	     -0.28919700	      0.86673200	      1.27891300	     -0.23888100	      0.90657500	      1.10855800	     -0.24866500	      1.02755800	      0.68449600	     -0.18628300	      0.96175500	      0.63770300	     -0.26638800	      0.94284900	      0.70362800	     -0.13806700	      0.89927500	      0.67105300	     -0.33878300	      0.96729000	      0.62181700	     -0.13785800	      0.91004900	      0.58484800	     -0.33056300	      0.83882800	      0.23861700	     -0.04607000	      0.76504900	      0.18139400	     -0.39572000	      0.84444200	      0.24089400	     -0.08786000	      0.77243800	      0.18682700	     -0.35297100	      0.89757900	      0.06831700	     -0.10423200	      0.88405800	      0.03824800	     -0.29683100	      0.00000000	      0.00000000	      0.00000000	      0.40404144	      0.00000000	     -0.15352295	      0.44115784	    294.85598033	     12.22255533	      0.81253516	      0.00000000	     -0.28934741	      0.00000000	      0.00000000	      0.00000000	      0.00000000	     -1.57277344	      0.00000000	      0.81788969	      0.84200037	     -0.25278020	      0.81745833	      0.82688910	     -0.19214340	      0.81786782	      0.82312572	     -0.30955419	      0.95430940	      0.47203282	     -0.17360519	      0.84747159	      0.46340808	     -0.29261050	      0.79888529	      0.11671983	     -0.14285851	      0.75687689	      0.06768375	     -0.28771502	      0.87524962	      0.90662646	     -0.24730210	      0.86649436	      0.90847474	     -0.14767984	      0.88400483	      0.90477818	     -0.34692436	      0.71652919	      0.93052101	     -0.22972123	      0.72023886	      0.93141669	     -0.28474477	      0.96275526	      0.47811136	     -0.11959854	      0.86409730	      0.46233210	     -0.34450155	      0.95602161	      0.46593839	     -0.23178600	      0.84392387	      0.44405735	     -0.25491744	      0.79189378	      0.12300879	     -0.10552464	      0.76561165	      0.06522121	     -0.32513013	      0.82056338	      0.11963864	     -0.17293565	      0.77680814	      0.07557297	     -0.25996658	      0.78820610	      1.34740353	     -0.22119580	      0.88543582	      1.26440883	     -0.18159887	      0.87663585	      1.26918852	     -0.28919724	      0.86673194	      1.27891326	     -0.23888099	      0.90657490	      1.10855842	     -0.24866486	      1.02755773	      0.68449628	     -0.18628290	      0.96175474	      0.63770282	     -0.26638755	      0.94284880	      0.70362753	     -0.13806666	      0.89927453	      0.67105263	     -0.33878317	      0.96728963	      0.62181669	     -0.13785778	      0.91004884	      0.58484840	     -0.33056262	      0.83882815	      0.23861673	     -0.04607015	      0.76504916	      0.18139419	     -0.39572018	      0.84444171	      0.24089397	     -0.08786015	      0.77243799	      0.18682708	     -0.35297143	      0.89757866	      0.06831706	     -0.10423233	      0.88405800	      0.03824790	     -0.29683137
      0.81667000	      0.87594857	      0.89372010	     -0.24526831	      3.43922208	     -0.71188253	     -4.79029521	     18.66349886	      0.07021984	      8.72431070	    -42.20024632	      7.06848687	      0.49675418	      1.72342252	      2.87859899	    -17.21787802	     13.08018538	    -15.18271511	      2.80795139	     10.29542394	      0.00000000	      0.00000000	      0.00000000	      0.00000000	      0.91662508	      0.90076689	     -0.14875480	      0.91607224	      0.89213231	     -0.35027780	      0.88692327	      0.89439113	     -0.24434696	      0.76278132	      0.94052152	     -0.22644086	      0.76229302	      0.93887150	     -0.28132027	      0.81811669	      0.83881793	     -0.18370047	      0.82918583	      0.83785068	     -0.31484724	      0.82365126	      0.83833430	     -0.24927385	      0.99407879	      0.49100028	     -0.10918577	      0.96527901	      0.46833935	     -0.21241093	      1.05278277	      0.68710594	     -0.19699307	      0.97148087	      0.71499797	     -0.14357553	      0.99188921	      0.63175231	     -0.13605062	      0.81030735	      0.10667408	     -0.09755409	      0.84326280	      0.10451299	     -0.16319359	      0.85473224	      0.22533440	     -0.03371193	      0.85997103	      0.22751886	     -0.07567408	      0.96245370	      0.48855502	     -0.16974519	      0.82537766	      0.11508836	     -0.13811682	      0.92642029	      0.05693130	     -0.08632492	      0.87948131	      0.45210844	     -0.35614039	      0.85058159	      0.44214248	     -0.25119125	      0.98585628	      0.62395800	     -0.27725488	      0.92113167	      0.66150978	     -0.34527562	      0.92394527	      0.57395708	     -0.33596555	      0.75634947	      0.06010850	     -0.34079534	      0.77789485	      0.06726573	     -0.27674594	      0.74547884	      0.18208083	     -0.40345561	      0.76055480	      0.18483950	     -0.36299471	      0.85248944	      0.46359473	     -0.29886767	      0.76089194	      0.07516588	     -0.29817947	      0.88158798	      0.03085172	     -0.33719299	      0.89636816	      1.27401295	     -0.18009609	      0.88985584	      1.27929649	     -0.28898908	      0.79173312	      1.33018014	     -0.22151804	      0.87753226	      1.28591008	     -0.23839422	      0.95462824	      1.12904522	     -0.24936624	      0.82760300	      0.84161200	     -0.25303500	      0.82774000	      0.82675100	     -0.19232900	      0.82768900	      0.82280000	     -0.30973400	      0.96813000	      0.47312900	     -0.17266700	      0.85113600	      0.46286800	     -0.29277400	      0.83054000	      0.11025400	     -0.14187100	      0.75712000	      0.06769000	     -0.28754200	      0.88515600	      0.90651200	     -0.24784500	      0.87679100	      0.90850400	     -0.14816100	      0.89352000	      0.90452000	     -0.34752900	      0.72631500	      0.93007600	     -0.22928800	      0.72973200	      0.93105200	     -0.28430800	      0.97671700	      0.47953800	     -0.11872100	      0.86751300	      0.46148600	     -0.34473700	      0.96448700	      0.46682100	     -0.23160900	      0.84779700	      0.44353000	     -0.25501400	      0.82308000	      0.11624800	     -0.10458000	      0.76564800	      0.06516500	     -0.32500100	      0.85171300	      0.11440800	     -0.17208800	      0.77727700	      0.07530000	     -0.25991800	      0.79901200	      1.34697300	     -0.22076200	      0.89582800	      1.26352800	     -0.18125500	      0.88698800	      1.26863800	     -0.28898900	      0.87725100	      1.27831900	     -0.23848200	      0.91626400	      1.10777100	     -0.24882200	      1.03874900	      0.68634700	     -0.18659100	      0.96815100	      0.63532900	     -0.26723100	      0.95388200	      0.70472800	     -0.13836100	      0.90569500	      0.66978000	     -0.33919900	      0.97719900	      0.62279500	     -0.13787200	      0.91537300	      0.58342100	     -0.33102800	      0.86386700	      0.23411700	     -0.04517100	      0.76573000	      0.18142800	     -0.39565500	      0.86923300	      0.23660100	     -0.08696300	      0.77324000	      0.18679100	     -0.35278900	      0.93115100	      0.06634900	     -0.10417100	      0.88408000	      0.03818700	     -0.29681100	      0.00000000	      0.00000000	      0.00000000	      0.41162062	      0.00000000	     -0.15169002	      1.96361445	    298.59140018	     11.64781598	      0.81491772	      0.00000000	     -0.28923050	      0.00000000	      0.00000000	      0.00000000	      0.00000000	     -1.70147485	      0.00000000	      0.82760262	      0.84161186	     -0.25303465	      0.82774025	      0.82675117	     -0.19232865	      0.82768923	      0.82279968	     -0.30973399	      0.96813041	      0.47312933	     -0.17266738	      0.85113621	      0.46286762	     -0.29277396	      0.83054030	      0.11025432	     -0.14187147	      0.75711966	      0.06768953	     -0.28754222	      0.88515580	      0.90651178	     -0.24784504	      0.87679142	      0.90850401	     -0.14816096	      0.89352012	      0.90451956	     -0.34752911	      0.72631502	      0.93007582	     -0.22928807	      0.72973222	      0.93105233	     -0.28430811	      0.97671676	      0.47953755	     -0.11872102	      0.86751294	      0.46148592	     -0.34473684	      0.96448690	      0.46682084	     -0.23160945	      0.84779727	      0.44353008	     -0.25501412	      0.82307971	      0.11624791	     -0.10457981	      0.76564765	      0.06516473	     -0.32500085	      0.85171348	      0.11440790	     -0.17208818	      0.77727711	      0.07529998	     -0.25991812	      0.79901183	      1.34697258	     -0.22076198	      0.89582801	      1.26352751	     -0.18125498	      0.88698804	      1.26863837	     -0.28898934	      0.87725061	      1.27831900	     -0.23848164	      0.91626412	      1.10777092	     -0.24882160	      1.03874862	      0.68634665	     -0.18659085	      0.96815073	      0.63532883	     -0.26723143	      0.95388186	      0.70472795	     -0.13836052	      0.90569514	      0.66978019	     -0.33919936	      0.97719878	      0.62279475	     -0.13787214	      0.91537273	      0.58342147	     -0.33102769	      0.86386710	      0.23411728	     -0.04517130	      0.76573026	      0.18142827	     -0.39565459	      0.86923331	      0.23660126	     -0.08696269	      0.77324021	      0.18679136	     -0.35278922	      0.93115056	      0.06634896	     -0.10417084	      0.88407969	      0.03818659	     -0.29681095
      0.82500000	      0.88591168	      0.89320765	     -0.24614592	      3.55926694	     -0.76163463	     -4.55196470	     19.01695635	     -0.08767300	      8.68744093	    -39.74710585	      6.69847939	     -0.57926221	      1.75485811	      2.83462402	    -16.76193496	     13.55241527	    -15.43060177	      3.04691278	     10.17098467	      0.00000000	      0.00000000	      0.00000000	      0.00000000	      0.92696881	      0.90044593	     -0.14980791	      0.92560790	      0.89158358	     -0.35131718	      0.89688866	      0.89390209	     -0.24527033	      0.77272710	      0.93979933	     -0.22690694	      0.77201731	      0.93808659	     -0.28178201	      0.82844489	      0.83825693	     -0.18428026	      0.83897853	      0.83716475	     -0.31547014	      0.83371171	      0.83771084	     -0.24987520	      1.00737501	      0.49215541	     -0.10884841	      0.97850128	      0.46885875	     -0.21191126	      1.06428614	      0.68837804	     -0.19756993	      0.98289627	      0.71582795	     -0.14405740	      1.00399010	      0.63277864	     -0.13625821	      0.84294403	      0.10056639	     -0.09581867	      0.87562035	      0.09997459	     -0.16163041	      0.88163801	      0.22142341	     -0.03236776	      0.88653828	      0.22380496	     -0.07436007	      0.97517201	      0.48954885	     -0.16931372	      0.85735493	      0.10966978	     -0.13647213	      0.96116581	      0.05608686	     -0.08522341	      0.88261142	      0.45062873	     -0.35691780	      0.85404080	      0.44116196	     -0.25183242	      0.99221849	      0.62068248	     -0.27856706	      0.92781405	      0.65930439	     -0.34629186	      0.92920424	      0.57171806	     -0.33697678	      0.75606832	      0.05994566	     -0.34048094	      0.77799422	      0.06698882	     -0.27654815	      0.74596854	      0.18193383	     -0.40323929	      0.76126918	      0.18460751	     -0.36285710	      0.85598940	      0.46261329	     -0.29953573	      0.76095577	      0.07501362	     -0.29790701	      0.88136442	      0.03056277	     -0.33764630	      0.90692052	      1.27290036	     -0.17989250	      0.90030067	      1.27850996	     -0.28876271	      0.80235643	      1.32940138	     -0.22103869	      0.88804578	      1.28500357	     -0.23813563	      0.96480646	      1.12801262	     -0.24964200	      0.83743200	      0.84113100	     -0.25339800	      0.83808100	      0.82642300	     -0.19249600	      0.83753900	      0.82234800	     -0.30989600	      0.98146700	      0.47381000	     -0.17162700	      0.85492900	      0.46229000	     -0.29297900	      0.86244900	      0.10414800	     -0.14104900	      0.75733900	      0.06770800	     -0.28740600	      0.89510300	      0.90623800	     -0.24833900	      0.88715600	      0.90831900	     -0.14859000	      0.90305000	      0.90415700	     -0.34808800	      0.73616900	      0.92944400	     -0.22883300	      0.73928600	      0.93055500	     -0.28382000	      0.99014600	      0.48052900	     -0.11773300	      0.87103800	      0.46062300	     -0.34501700	      0.97587000	      0.46688800	     -0.22999900	      0.85128900	      0.44313900	     -0.25539200	      0.85442600	      0.10981100	     -0.10382200	      0.76566700	      0.06511900	     -0.32490500	      0.88308000	      0.10945200	     -0.17120700	      0.77769400	      0.07507800	     -0.25997700	      0.80983900	      1.34635100	     -0.22032300	      0.90624000	      1.26244200	     -0.18087100	      0.89748300	      1.26806200	     -0.28869600	      0.88778800	      1.27755400	     -0.23810300	      0.92613200	      1.10690900	     -0.24915900	      1.04985600	      0.68762800	     -0.18669200	      0.97464000	      0.63289100	     -0.26810800	      0.96418700	      0.70525600	     -0.13834100	      0.91231200	      0.66855900	     -0.33964300	      0.98767900	      0.62360800	     -0.13722100	      0.92067600	      0.58201700	     -0.33160100	      0.88866100	      0.22968100	     -0.04439100	      0.76645200	      0.18146400	     -0.39564300	      0.89386600	      0.23227800	     -0.08615000	      0.77403800	      0.18679400	     -0.35278700	      0.96461700	      0.06478900	     -0.10399100	      0.88411700	      0.03813400	     -0.29680600	      0.00000000	      0.00000000	      0.00000000	      0.41884798	      0.00000000	     -0.14983745	      3.58638765	    304.59953168	     11.70104909	      0.81755817	      0.00000000	     -0.28922571	      0.00000000	      0.00000000	      0.00000000	      0.00000000	     -1.79839185	      0.00000000	      0.83743191	      0.84113085	     -0.25339848	      0.83808124	      0.82642287	     -0.19249614	      0.83753872	      0.82234842	     -0.30989602	      0.98146707	      0.47381043	     -0.17162679	      0.85492921	      0.46229029	     -0.29297885	      0.86244881	      0.10414825	     -0.14104861	      0.75733942	      0.06770798	     -0.28740579	      0.89510328	      0.90623772	     -0.24833903	      0.88715637	      0.90831852	     -0.14859007	      0.90305018	      0.90415698	     -0.34808800	      0.73616880	      0.92944431	     -0.22883327	      0.73928648	      0.93055457	     -0.28381991	      0.99014592	      0.48052931	     -0.11773305	      0.87103850	      0.46062335	     -0.34501693	      0.97586966	      0.46688837	     -0.22999863	      0.85128939	      0.44313940	     -0.25539190	      0.85442585	      0.10981071	     -0.10382202	      0.76566726	      0.06511867	     -0.32490504	      0.88307995	      0.10945214	     -0.17120747	      0.77769417	      0.07507791	     -0.25997746	      0.80983925	      1.34635115	     -0.22032264	      0.90623975	      1.26244152	     -0.18087053	      0.89748269	      1.26806235	     -0.28869596	      0.88778841	      1.27755356	     -0.23810312	      0.92613178	      1.10690904	     -0.24915886	      1.04985631	      0.68762839	     -0.18669206	      0.97464001	      0.63289118	     -0.26810825	      0.96418744	      0.70525593	     -0.13834117	      0.91231227	      0.66855878	     -0.33964288	      0.98767889	      0.62360829	     -0.13722061	      0.92067647	      0.58201730	     -0.33160147	      0.88866103	      0.22968055	     -0.04439098	      0.76645225	      0.18146363	     -0.39564285	      0.89386636	      0.23227839	     -0.08614999	      0.77403796	      0.18679352	     -0.35278735	      0.96461672	      0.06478931	     -0.10399099	      0.88411707	      0.03813362	     -0.29680601
